<svg id="Capa_1" xmlns="http://www.w3.org/2000/svg" viewBox="-260 383.9 75 75"><style>.st0{enable-background:new ;} .st1{fill:#FFFFFF;}</style><path class="st0 st1" d="M-244.8 430.7c-.5 0-1-.1-1.4-.2-.5-.1-.9-.3-1.4-.6-.4-.2-.8-.5-1.1-.8s-.6-.6-.8-1l2.1-2.4c.4.4.8.8 1.2 1.1s.9.5 1.5.5 1.2-.2 1.5-.6c.4-.4.6-.9.6-1.5 0-.3-.1-.6-.2-.8-.1-.2-.2-.5-.4-.7-.2-.2-.4-.3-.6-.4-.2-.1-.5-.2-.8-.2-.4 0-.8.1-1.1.3-.3.2-.5.4-.7.7l-2.4-1.2 1.2-7.4h7.5v3.2h-5.1l-.3 2.1c.2-.1.5-.3.8-.4.4-.1.8-.2 1.2-.2.6 0 1.1.1 1.6.3.5.2 1 .5 1.4 1 .4.4.7 1 1 1.6.3.6.4 1.4.4 2.2 0 .9-.2 1.7-.5 2.4s-.8 1.2-1.3 1.7c-.5.4-1.1.8-1.8 1-.7.2-1.4.3-2.1.3zm11.8 0c-.8 0-1.5-.2-2.2-.5-.7-.3-1.2-.8-1.7-1.5-.5-.6-.9-1.5-1.1-2.4-.3-1-.4-2.1-.4-3.4 0-1.1.1-2.2.4-3.1.3-.9.6-1.8 1.1-2.4s1-1.2 1.7-1.6c.7-.4 1.4-.6 2.2-.6.9 0 1.7.2 2.4.6.7.4 1.3.9 1.7 1.6.4.7.8 1.5 1 2.5.2 1 .3 2 .3 3.2s-.1 2.3-.4 3.2c-.2.9-.6 1.8-1 2.4-.5.7-1 1.2-1.7 1.5-.7.3-1.5.5-2.3.5zm0-3.3c.2 0 .4-.1.6-.3.2-.2.4-.5.5-.9.1-.4.2-.8.3-1.4.1-.5.1-1.1.1-1.8 0-.6 0-1.2-.1-1.8-.1-.5-.2-1-.4-1.4-.2-.4-.3-.7-.5-.9-.2-.2-.4-.3-.6-.3-.2 0-.4.1-.5.3-.2.2-.4.5-.5.8-.2.4-.3.8-.4 1.3-.1.5-.1 1.1-.1 1.8s.1 1.3.2 1.9c.1.6.2 1 .4 1.4.2.4.3.7.5.9.1.3.3.4.5.4zm13.6-13h2.2l-7.9 17.2h-2.2l7.9-17.2zm7.8 16.3c-.5 0-1-.1-1.4-.2-.5-.1-.9-.3-1.4-.6-.4-.2-.8-.5-1.1-.8-.3-.3-.6-.6-.8-1l2.1-2.4c.4.4.8.8 1.2 1.1.4.3.9.5 1.5.5s1.2-.2 1.5-.6c.4-.4.6-.9.6-1.5 0-.3-.1-.6-.2-.8s-.2-.5-.4-.7c-.2-.2-.4-.3-.6-.4s-.5-.2-.8-.2c-.4 0-.8.1-1.1.3-.3.2-.5.4-.7.7l-2.4-1.2 1.2-7.4h7.5v3.2h-5.1l-.3 2.1c.2-.1.5-.3.8-.4.4-.1.8-.2 1.2-.2.6 0 1.1.1 1.6.3.5.2 1 .5 1.4 1 .4.4.7 1 1 1.6.3.6.4 1.4.4 2.2 0 .9-.2 1.7-.5 2.4s-.8 1.2-1.3 1.7c-.5.4-1.1.8-1.8 1-.7.2-1.4.3-2.1.3zm11.7 0c-.8 0-1.5-.2-2.2-.5-.7-.3-1.2-.8-1.7-1.5-.5-.6-.9-1.5-1.1-2.4-.3-1-.4-2.1-.4-3.4 0-1.1.1-2.2.4-3.1.3-.9.6-1.8 1.1-2.4.5-.7 1-1.2 1.7-1.6.7-.4 1.4-.6 2.2-.6.9 0 1.7.2 2.4.6.7.4 1.3.9 1.7 1.6.4.7.8 1.5 1 2.5.2 1 .3 2 .3 3.2s-.1 2.3-.4 3.2c-.2.9-.6 1.8-1 2.4-.5.7-1 1.2-1.7 1.5-.6.3-1.4.5-2.3.5zm0-3.3c.2 0 .4-.1.6-.3s.4-.5.5-.9c.1-.4.2-.8.3-1.4.1-.5.1-1.1.1-1.8 0-.6 0-1.2-.1-1.8-.1-.5-.2-1-.4-1.4-.2-.4-.3-.7-.5-.9-.2-.2-.4-.3-.6-.3-.2 0-.4.1-.5.3-.2.2-.4.5-.5.8-.2.4-.3.8-.4 1.3-.1.5-.1 1.1-.1 1.8s.1 1.3.2 1.9c.1.6.2 1 .4 1.4.2.4.3.7.5.9.1.3.3.4.5.4z"/></svg>