<svg id="Capa_1" xmlns="http://www.w3.org/2000/svg" viewBox="-272 395.9 51 51"><style>.st0{enable-background:new ;} .st1{fill:#939393;} .st2{fill:none;stroke:#666666;stroke-width:2;stroke-miterlimit:10;}</style><path class="st0 st1" d="M-261.7 427.7c-.3 0-.6 0-.9-.2-.3-.1-.6-.2-.8-.4-.3-.2-.6-.4-.7-.6l-.6-.6 1.4-1.6c.3.3.5.6.7.7s.6.3.9.3c.5 0 .7-.1 1-.4s.4-.6.4-1c0-.2 0-.4-.1-.6-.1-.2-.2-.3-.3-.5-.1-.2-.3-.2-.4-.3-.2-.1-.3-.1-.5-.1-.3 0-.6.1-.7.2s-.4.3-.5.5l-1.6-.8.7-4.8h4.9v2h-3.3l-.2 1.4c.1-.1.3-.2.6-.3.3-.1.5-.1.8-.1s.7.1 1 .2c.4.2.6.4.9.6.3.3.5.6.6 1 .2.4.3.9.3 1.4 0 .6-.1 1.1-.4 1.6-.2.5-.5.8-.8 1.1-.4.3-.7.6-1.2.6-.3.3-.8.7-1.2.7zm7.6 0c-.6 0-1-.1-1.4-.3-.5-.2-.8-.6-1.1-.9-.3-.5-.6-.9-.7-1.6s-.3-1.4-.3-2.2c0-.7.1-1.4.3-2 .2-.6.4-1.1.7-1.6.3-.5.6-.7 1.1-1 .5-.3.9-.4 1.4-.4.6 0 1.1.1 1.6.4s.8.6 1.1 1c.3.5.5 1 .6 1.6.2.6.2 1.3.2 2.1s-.1 1.5-.2 2c-.2.6-.4 1.1-.6 1.6-.3.5-.6.7-1.1 1-.5.2-1 .3-1.6.3zm0-2.2c.2 0 .3-.1.4-.2.1-.1.2-.4.3-.6.1-.3.2-.6.2-.9.1-.4.1-.7.1-1.2s0-.8-.1-1.1c-.1-.3-.1-.6-.3-.9-.1-.3-.2-.5-.4-.6-.2-.1-.3-.2-.5-.2-.1 0-.3.1-.4.2-.1.1-.2.3-.4.6s-.2.6-.3.8c-.1.4-.1.7-.1 1.1 0 .5 0 .8.1 1.2.1.4.2.6.3.9.1.3.2.5.4.6.5.2.6.3.7.3zm8.9-8.5h1.5l-5.1 11.2h-1.5l5.1-11.2zm5.1 10.7c-.3 0-.6 0-.9-.2-.3-.1-.6-.2-.8-.4-.3-.2-.6-.4-.7-.6l-.6-.6 1.4-1.6c.3.3.5.6.7.7.3.2.6.3.9.3.5 0 .7-.1 1-.4s.4-.6.4-1c0-.2 0-.4-.1-.6-.1-.2-.2-.3-.3-.5-.1-.2-.3-.2-.4-.3-.2-.1-.3-.1-.5-.1-.3 0-.6.1-.7.2s-.4.3-.5.5l-1.6-.8.7-4.8h4.9v2h-3.3l-.2 1.4c.1-.1.3-.2.6-.3.3-.1.5-.1.8-.1.4 0 .7.1 1 .2.4.2.6.4.9.6.3.3.5.6.6 1s.3.9.3 1.4c0 .6-.1 1.1-.4 1.6-.2.5-.5.8-.8 1.1-.4.3-.7.6-1.2.6-.3.3-.8.7-1.2.7zm7.6 0c-.6 0-1-.1-1.4-.3-.5-.2-.8-.6-1.1-.9-.3-.5-.6-.9-.7-1.6-.2-.6-.3-1.4-.3-2.2 0-.7.1-1.4.3-2 .2-.6.4-1.1.7-1.6.3-.5.6-.7 1.1-1 .5-.3.9-.4 1.4-.4.6 0 1.1.1 1.6.4s.8.6 1.1 1c.3.5.5 1 .6 1.6.2.6.2 1.3.2 2.1s-.1 1.5-.2 2c-.2.6-.4 1.1-.6 1.6-.3.5-.6.7-1.1 1-.6.2-1.1.3-1.6.3zm0-2.2c.2 0 .3-.1.4-.2.1-.1.2-.4.3-.6.1-.3.2-.6.2-.9 0-.4.1-.7.1-1.2s0-.8-.1-1.1c-.1-.4-.1-.6-.3-.9-.2-.3-.2-.5-.4-.6-.1-.1-.3-.2-.5-.2-.1 0-.3.1-.4.2s-.2.3-.4.6-.2.6-.3.8c-.1.4-.1.7-.1 1.1 0 .5 0 .8.1 1.2.1.4.2.6.3.9s.2.5.4.6c.4.2.6.3.7.3z"/><circle class="st2" cx="-246.5" cy="421.4" r="21.9"/></svg>