<svg xmlns="http://www.w3.org/2000/svg" viewBox="0 0 51 51"><style>.st0{fill:#CB6120;}</style><g id="Capa_1"><path class="st0" d="M46.3 38.2L29.2 8.6c-.8-1.3-2.2-2.1-3.7-2.1s-2.9.8-3.7 2.1L4.7 38.2c-.8 1.3-.8 2.9 0 4.3.8 1.3 2.2 2.1 3.7 2.1h34.2c1.5 0 2.9-.8 3.7-2.1.7-1.4.7-3 0-4.3zM8.4 40.3l17.1-29.6 17.1 29.6H8.4z"/><path class="st0" d="M23.4 20.5v8.9c0 1.2 1 2.1 2.1 2.1 1.2 0 2.1-1 2.1-2.1v-8.9c0-1.2-1-2.1-2.1-2.1-1.2 0-2.1 1-2.1 2.1z"/><circle class="st0" cx="25.5" cy="35.3" r="2.1"/></g></svg>