<svg xmlns="http://www.w3.org/2000/svg" viewBox="0 0 51 51"><style>.st0{fill:#939393;}</style><path class="st0" d="M25.3 8.8L43.1 27h-4.7v13.3c0 1.2-1.2 1.8-2.1 1.8h-8.7c-1.5 0-2.3-.6-2.3-1.8v-7.9c0-1.2-1-2.2-2.2-2.2H20c-1.2 0-2.2 1-2.2 2.2v7.9c0 1.2-1 1.8-2.2 1.8h-.2c-1.2 0-2.2-.6-2.2-1.8V27.1H7.8L25.3 8.8zm5.3 28h2.8c1.2 0 2.2-1 2.2-2.2v-2.4c0-1.2-1-2.2-2.2-2.2h-2.8c-1.2 0-2.2 1-2.2 2.2v2.4c0 1.2 1 2.2 2.2 2.2zM25.3 7.5c-.4 0-.7.2-1 .4L6.9 26.1c-.4.4-.5 1-.3 1.5s.7.8 1.3.8h3.9v11.9c0 1.9 1.4 3.2 3.6 3.2h.2c2.2 0 3.6-1.3 3.6-3.2v-7.9c0-.5.4-.9.9-.9h3.1c.5 0 .9.4.9.9v7.9c0 .7.3 3.2 3.7 3.2h8.7c1.7 0 3.5-1.2 3.5-3.2V28.4h3.3c.6 0 1.1-.3 1.3-.8.2-.5.1-1.1-.3-1.5l-18-18.2c-.3-.3-.6-.4-1-.4zm5.3 27.9c-.5 0-.9-.4-.9-.9v-2.4c0-.5.4-.9.9-.9h2.8c.5 0 .9.4.9.9v2.4c0 .5-.4.9-.9.9h-2.8z" id="Capa_1"/></svg>