<svg xmlns="http://www.w3.org/2000/svg" viewBox="0 0 51 51"><style>.st0{fill:none;stroke:#666666;stroke-width:2;stroke-miterlimit:10;} .st1{fill:#939393;}</style><g id="Capa_1"><circle class="st0" cx="25.5" cy="25.5" r="21.9"/><path class="st1" d="M36.4 31.4l-4.9-3.5c-.3-.2-.8-.2-1.1.1l-.1.1v.1c-.3.5-.3.5-.6.9-.4.6-.8 1.5-1.2 2.6-1.4-.2-3.4-1.4-5.7-3.7-2.3-2.3-3.5-4.3-3.7-5.7 1-.4 2-.9 2.6-1.2.4-.3.5-.3.9-.6h.1s.1 0 .1-.1c.3-.3.3-.8.1-1.1l-3.5-4.9-.1-.1c-.3-.3-.8-.3-1.1-.1-2.4 1.6-4.5 3.4-4.2 5.5.3 2.3 3 7.2 6.5 10.7 3.5 3.5 8.5 6.2 10.7 6.5 2.1.3 3.9-1.8 5.5-4.2.3-.3.2-.8-.1-1.1l-.2-.2z"/></g></svg>