<svg id="Capa_1" xmlns="http://www.w3.org/2000/svg" viewBox="-260 383.9 75 75"><style>.st0{fill:#FFFFFF;} .st1{fill:#FFFFFF;stroke:#FFFFFF;stroke-miterlimit:10;} .st2{enable-background:new ;} .st3{fill:#5B5B5B;} .st4{fill:#939393;}</style><path class="st0" d="M-205.7 430.5l-7.6-5.4c-.5-.4-1.2-.3-1.7.1l-.1.1s0 .1-.1.1c-.5.7-.5.8-.9 1.4-.6.9-1.3 2.3-1.9 3.9-2.1-.3-5.3-2.2-8.7-5.6-3.5-3.5-5.3-6.6-5.6-8.7 1.6-.7 3-1.3 3.9-1.9.6-.4.7-.4 1.4-.9 0 0 .1 0 .1-.1l.1-.1c.5-.5.5-1.2.1-1.7l-5.3-7.5c0-.1-.1-.1-.1-.2-.5-.5-1.2-.5-1.7-.1-3.6 2.5-6.9 5.2-6.5 8.4.5 3.5 4.6 11.1 10 16.5s13 9.5 16.5 10c3.2.4 6-2.8 8.4-6.5.4-.5.4-1.2-.1-1.7-.1 0-.2-.1-.2-.1z"/><path class="st1" d="M396.2-67c2-1.3 4.1-2.5 6.2-3.6 1.1 2.1 4.5 11 2.8 12s-5.7-2.7-9-8.4zm115.4-10.1c37.6 21.7 58.6 61 58.6 101.5 0 19.9-5.1 40-15.7 58.4-32.3 56-104 75.2-160 42.9-37.6-21.7-58.6-61.1-58.6-101.5 0-19.9 5.1-40 15.7-58.4 32.4-56 104-75.2 160-42.9zm-16.7 200.5c2.9-1.2 5.8-2.6 8.6-4.1-3.2-5.7-4.5-11-2.8-12s7.7 6.4 9 8.4c7-4.3 13.5-9.5 19.4-15.4 5.8-5.8 10.9-12.2 15.2-19-2-1.2-9.4-7.3-8.5-9 1-1.7 6.4-.4 12.1 2.8 1.6-2.9 3-5.9 4.3-9 5.1-12.1 7.9-24.8 8.4-38-2.6-.1-11.7-1.7-11.7-3.6 0-2 5.2-3.5 11.7-3.6-.3-8.5-1.5-16.8-3.7-25-2.1-7.7-5.1-15.2-8.8-22.3-5.7 3.2-11 4.5-12 2.8s2.8-5.7 8.4-9c-8.7-14-20.5-25.8-34.5-34.5-3.3 5.5-7.2 9.2-8.9 8.3-1.6-.9 1.5-9.5 2.7-11.8-7-3.7-14.3-6.7-21.9-8.8-8.2-2.3-16.6-3.6-25.2-3.8 0 6.5-1.6 11.7-3.6 11.7-1.9 0-3.5-9.2-3.6-11.7-13.3.4-26.1 3.2-38.3 8.4-3 1.3-5.9 2.7-8.8 4.2l-.1-.1-6.2 3.6.1.1c-6.9 4.3-13.3 9.4-19.2 15.3s-11 12.4-15.4 19.4c2.2 1.4 9.2 7.3 8.3 8.9-1 1.7-6.2.5-11.8-2.7-1.5 2.8-2.9 5.7-4.1 8.6-5.2 12.3-8 25.3-8.4 38.7 2.8.2 11.5 1.7 11.5 3.6s-5.1 3.5-11.5 3.6c.3 8.2 1.5 16.4 3.7 24.3 2.1 7.8 5.1 15.3 9 22.5 5.7-3.2 11-4.5 12-2.8s-2.8 5.7-8.4 9c8.7 13.9 20.5 25.6 34.3 34.3 3.3-5.5 7.2-9.2 8.9-8.2 1.6.9-1.5 9.4-2.7 11.8 7 3.7 14.3 6.7 21.9 8.8 8.2 2.3 16.8 3.6 25.4 3.8 0-6.5 1.6-11.8 3.6-11.8 1.9 0 3.5 9.5 3.6 11.8 13.1-.5 25.9-3.4 38-8.5z"/><text transform="translate(-598.373 10.846)" class="st3" font-family="Lato-Light" font-size="30">Tu puntaje</text><path class="st4" d="M-515.6-68.5V-47h15.3v16.8h-54.1v-19.7h15.3v-18.7h23.5v.1zm0-2.1h-23.6c-1.2 0-2.1 1-2.1 2.1v16.6h-13.2c-1.2 0-2.1 1-2.1 2.1v19.7c0 1.2 1 2.1 2.1 2.1h54.1c1.2 0 2.1-1 2.1-2.1v-16.8c0-1.2-1-2.1-2.1-2.1h-13.2v-19.4c.1-1.2-.9-2.2-2-2.2z"/><path class="st4" d="M-524.6-37.8h-2.5v-16.7l-4.9 3.9v-2.8l5.8-4.7h1.6v20.3z"/></svg>