<svg xmlns="http://www.w3.org/2000/svg" viewBox="0 0 252 249"><style>.st0{fill:#FFFFFF;stroke:#FFFFFF;stroke-miterlimit:10;}</style><path class="st0" d="M69.1 33.2c2-1.3 4.1-2.5 6.2-3.6 1.1 2.1 4.5 11 2.8 12-1.7 1-5.7-2.8-9-8.4zm115.4-10.1c37.6 21.7 58.6 61 58.6 101.5 0 19.9-5.1 40-15.7 58.4-32.3 56-104 75.2-160 42.9-37.5-21.7-58.5-61.1-58.5-101.5 0-19.9 5.1-40 15.7-58.4C56.9 9.9 128.5-9.3 184.5 23.1zm-16.7 200.5c2.9-1.2 5.8-2.6 8.6-4.1-3.2-5.7-4.5-11-2.8-12 1.7-1 7.7 6.4 9 8.4 7-4.3 13.5-9.5 19.4-15.4 5.8-5.8 10.9-12.2 15.2-19-2-1.2-9.4-7.3-8.5-9 1-1.7 6.4-.4 12.1 2.8 1.6-2.9 3-5.9 4.3-9 5.1-12.1 7.9-24.8 8.4-38-2.6-.1-11.7-1.7-11.7-3.6 0-2 5.2-3.5 11.7-3.6-.3-8.5-1.5-16.8-3.7-25-2.1-7.7-5.1-15.2-8.8-22.3-5.7 3.2-11 4.5-12 2.8-1-1.7 2.8-5.7 8.4-9-8.7-14-20.5-25.8-34.5-34.5-3.3 5.5-7.2 9.2-8.9 8.3-1.6-.9 1.5-9.5 2.7-11.8-7-3.7-14.3-6.7-21.9-8.8-8.2-2.3-16.6-3.6-25.2-3.8 0 6.5-1.6 11.7-3.6 11.7-1.9 0-3.5-9.2-3.6-11.7-13.3.4-26.1 3.2-38.3 8.4-3 1.3-5.9 2.7-8.8 4.2l-.1-.1-6.2 3.6.1.1c-6.9 4.3-13.3 9.4-19.2 15.3-5.9 5.9-11 12.4-15.4 19.4 2.2 1.4 9.2 7.3 8.3 8.9-1 1.7-6.2.5-11.8-2.7-1.5 2.8-2.9 5.7-4.1 8.6-5.2 12.3-8 25.3-8.4 38.7 2.8.2 11.5 1.7 11.5 3.6 0 1.9-5.1 3.5-11.5 3.6.3 8.2 1.5 16.4 3.7 24.3 2.1 7.8 5.1 15.3 9 22.5 5.7-3.2 11-4.5 12-2.8 1 1.7-2.8 5.7-8.4 9 8.7 13.9 20.5 25.6 34.3 34.3 3.3-5.5 7.2-9.2 8.9-8.2 1.6.9-1.5 9.4-2.7 11.8 7 3.7 14.3 6.7 21.9 8.8 8.2 2.3 16.8 3.6 25.4 3.8 0-6.5 1.6-11.8 3.6-11.8 1.9 0 3.5 9.5 3.6 11.8 13.2-.6 25.9-3.4 38-8.5z" id="Capa_1"/></svg>