<svg xmlns="http://www.w3.org/2000/svg" viewBox="0 0 51 51"><style>.st0{fill:#939393;}</style><path class="st0" d="M25.7 9c5.5 0 10.5 2.7 13.5 7 2.1 3 3.2 6.7 2.9 10.4v.3c0 .5-.1.9-.2 1.4 0 .1-.1.3-.1.4-.1.3-.1.6-.2.9-.1.2-.1.5-.2.7 0 .1-.1.3-.1.4-1.9 5.8-7 10.4-13.4 11.3-.7.1-1.5.2-2.2.2-2.3 0-4.6-.5-6.6-1.4-1.3-.6-6.2-2.8-7.3-6.5 1.4-.3 6.5-1.4 7.8-1.7.9.7.8.8 2.3 1.4 1.1.5 2.3.8 3.5.8 3.5 0 6.9-2.1 8.4-5.4.2-.5.4-1 .6-1.6v-.2c0-.2.1-.4.1-.6 0-.1 0-.3.1-.4v-.3c0-.6 0-1.1-.1-1.7-.6-4.5-4.4-7.7-8.8-7.7-.4 0-.8 0-1.2.1-2.3.3-4.3 1.5-5.7 3.2 1 1.2 3.8 4.1 3.8 4.1L9.4 26l-.6-14.3s2.3 2.2 4 3.5c2.5-3.4 6.1-5.4 10.7-6 .7-.1 1.5-.2 2.2-.2zm0-1.3c-.8 0-1.6.1-2.4.2-4.4.6-8 2.4-10.7 5.5-1.4-1.2-2.9-2.6-2.9-2.6-.3-.2-.6-.4-.9-.4-.2 0-.4 0-.6.1-.5.2-.8.7-.8 1.3L8 26c0 .4.2.8.5 1 .2.2.6.3.9.3h.2l13.3-2c.5-.1.9-.4 1.1-.9.2-.5 0-1-.3-1.4 0 0-1.8-1.8-2.9-3.1 1.1-1 2.5-1.6 4-1.8.3 0 .7-.1 1-.1 3.7 0 6.9 2.8 7.4 6.5.1.5.1 1 .1 1.5v.7c0 .2-.1.3-.1.5v.2c-.1.4-.3.9-.5 1.3-1.3 2.8-4.2 4.6-7.2 4.6-1 0-2-.2-2.9-.6-1-.5-1.1-.5-1.5-.9-.1-.1-.3-.2-.4-.4-.2-.2-.5-.3-.9-.3h-.3c-1.3.3-6.4 1.4-7.7 1.7-.4.1-.7.3-.9.6-.2.3-.3.7-.1 1.1.6 2 2.4 4.9 8 7.4 2.3 1 4.7 1.5 7.2 1.5.8 0 1.6-.1 2.4-.2 6.7-.9 12.5-5.7 14.6-12.2v-.1c0-.1.1-.2.1-.3.1-.2.1-.5.2-.8.1-.3.1-.6.2-.9v-.2c0-.1 0-.2.1-.3.1-.5.1-1 .2-1.5v-.3c.3-4-.9-8-3.2-11.3-.1-.1-.1-.2-.2-.2-3.6-4.7-9-7.4-14.7-7.4z" id="Capa_1"/></svg>