<svg xmlns="http://www.w3.org/2000/svg" width="56.693" height="56.693" viewBox="29.374 18.734 56.693 56.693"><path fill="#898989" d="M56.498 63.42c-9.978 0-16.268-2.732-18.827-5.29-.453-.46-.7-1.06-.7-1.698V40.527h2.354v15.905c3.41 3.43 11.382 4.634 17.175 4.634 5.79 0 13.76-1.205 17.162-4.6l.013-15.94h2.354v15.906c0 .638-.25 1.24-.7 1.694-2.565 2.562-8.856 5.295-18.83 5.295z"/><path fill="#898989" d="M80.967 56.432c-.673 0-1.223-.55-1.223-1.223V40.525h-24.47c-.675 0-1.223-.548-1.223-1.223s.55-1.223 1.225-1.223h25.693c.673 0 1.223.55 1.223 1.224V55.21c0 .672-.55 1.222-1.222 1.222z"/><path fill="#898989" d="M56.498 33.094h.028l26.898 3.67c.043.005.077.046.08.096.002.04-.028.08-.07.088L56.538 43.06c-.015.003-.027.004-.04.004h-.02l-24.47-6.117c-.04-.01-.073-.052-.07-.094 0-.044.035-.08.08-.088l24.452-3.668c.017-.003.026-.003.028-.003m0-2.355c-.122 0-.242.01-.362.025l-24.47 3.67c-1.154.174-2.025 1.138-2.08 2.303-.057 1.16.718 2.206 1.85 2.49l24.468 6.117c.196.05.394.07.595.07.18 0 .36-.02.54-.058l26.917-6.118c1.152-.263 1.955-1.315 1.9-2.497-.057-1.182-.946-2.158-2.115-2.317l-26.916-3.67c-.11-.016-.22-.02-.33-.02z"/></svg>