<svg xmlns="http://www.w3.org/2000/svg" width="56.693" height="56.693" viewBox="131.374 18.734 56.693 56.693"><path fill="#898989" d="M159.72 68.363c-11.736 0-21.284-9.548-21.284-21.284 0-6.78 3.274-13.213 8.76-17.21.533-.39 1.284-.274 1.676.262.39.536.272 1.286-.263 1.677-4.87 3.547-7.774 9.255-7.774 15.27 0 10.412 8.47 18.882 18.884 18.882 10.413 0 18.884-8.47 18.884-18.883 0-10.01-7.827-18.226-17.683-18.846v8.43c0 .662-.535 1.2-1.2 1.2s-1.2-.54-1.2-1.2V25.796h1.2c11.737 0 21.285 9.548 21.285 21.283 0 11.735-9.548 21.282-21.284 21.282z"/><path fill="#898989" d="M149.27 39.15s.26.115.683.35c.423.233 1.014.58 1.677 1.04 1.35.9 7.973 6.07 9.12 7.674.23.33.5 1.396-.168 2.042-.71.687-2 .38-2.333.146-1.354-.898-6.69-7.54-7.59-8.89-.464-.662-.81-1.254-1.043-1.677-.234-.423-.348-.684-.348-.684z"/></svg>