<svg xmlns="http://www.w3.org/2000/svg" width="56.693" height="56.693" viewBox="233.374 18.734 56.693 56.693"><path fill="#898989" d="M261.72 29.178c9.87 0 17.902 8.03 17.902 17.902s-8.03 17.902-17.902 17.902c-9.87 0-17.902-8.03-17.902-17.902s8.03-17.902 17.902-17.902m0-2.8c-11.433 0-20.702 9.27-20.702 20.702s9.268 20.702 20.702 20.702c11.433 0 20.702-9.27 20.702-20.702s-9.27-20.702-20.702-20.702z"/><path fill="#898989" d="M276.162 60.967c-.123 0-.247-.018-.37-.054l-10.816-3.21c-.552-.165-.93-.67-.93-1.247V52.08c0-.566.366-1.067.906-1.24.514-.163 1.31-.83 2.184-3.074.113-.293.362-.933 1.04-1.08.07-.142.16-.427.16-.814 0-.36-.323-1.22-.48-1.633-.2-.533-.31-.825-.31-1.16 0-4.166-2.396-7.075-5.825-7.075s-5.823 2.91-5.823 7.075c0 .742-.56 1.786-1.463 1.978-.07.142-.162.427-.162.814 0 .385.09.67.162.812.64.13.966.69 1.337 1.326.51.872 1.455 2.496 2.688 2.853.556.16.938.67.938 1.25v4.343c0 .595-.403 1.114-.98 1.26l-11.185 2.836c-.695.178-1.4-.245-1.58-.94-.175-.697.246-1.404.94-1.58l10.206-2.588v-2.47c-1.666-.897-2.686-2.645-3.273-3.654l-.118-.205c-1.026-.408-1.733-1.667-1.733-3.243 0-1.523.662-2.75 1.632-3.2.168-5.395 3.656-9.267 8.42-9.267 4.838 0 8.36 3.998 8.423 9.528.034.1.086.234.145.387.273.725.647 1.717.647 2.55 0 1.45-.6 2.632-1.494 3.13-.41 1.027-1.26 2.926-2.798 3.895v2.59l9.886 2.936c.688.206 1.08.93.876 1.618-.17.565-.686.93-1.246.93z"/></svg>