<svg xmlns="http://www.w3.org/2000/svg" xmlns:xlink="http://www.w3.org/1999/xlink" width="212.132" height="51.898" viewBox="0 0 212.132 51.898"><defs><path id="a" d="M0 0h212.132v51.898H0z"/></defs><clipPath id="b"><use xlink:href="#a" overflow="visible"/></clipPath><path clip-path="url(#b)" fill-rule="evenodd" clip-rule="evenodd" fill="#535353" d="M162.122 38.715v-8.988h8.798c2.203-3.77 5.67-7.41 10.44-11.045-1.966-2.723-3.59-5.424-4.642-8.414H162.12V.036h24.546c-.576 6.948 1.184 10.245 3.512 12.78 4.92-2.97 8.192-7.934 11.372-12.816h10.582c-4.203 7.488-9.12 14.55-16.205 18.875.117.173.23.35.342.532 5.452 8.986 4.616 20.17 1.22 32.49h-10.68c3.66-8.87 4.998-19.643-.373-26.695-4.932 3.808-8.878 8.086-11.4 13.664h-6.987l.01-.15h-5.938zm0-14.338h1.506v-9.305h-1.506v9.305zM.038.037h9.94v38.88H.038V.037zm162.084 0v10.23h-18.28c-.582.482-.96 1.237-.96 2.083v2.722h19.24v9.305h-19.24v2.725c0 1.443 1.1 2.624 2.44 2.624h16.8v8.988H145.17c-6.542 0-11.897-6.69-11.897-14.87V10.268H116.39v28.358h-10.23v-28.36h-42.1c-1.126 0-2.047.924-2.047 2.05v2.84h20.372v9.295h-20.37v4.53h27.48v9.938h-64.61c-6.59 0-11.983-5.394-11.983-11.985v-14.91C12.902 5.43 18.295.036 24.887.036h24.85v9.94h-23.97c-1.77 0-3.22 1.382-3.22 3.073v12.854c0 1.69 1.45 3.074 3.22 3.074H52.22c-.094-.59-.144-1.195-.144-1.81V11.784c0-6.462 5.524-11.75 12.277-11.75h97.77z"/><path clip-path="url(#b)" fill="#535353" d="M176.055 49.045v-.85c.168-.05.332-.15.5-.29.27-.225.506-.6.707-1.123.203-.523.305-1.06.305-1.61 0-.6-.116-1.055-.343-1.364-.228-.31-.512-.463-.847-.463-.108 0-.215.017-.322.046v-.846c.115-.018.23-.025.353-.025.578 0 1.056.23 1.433.687s.565 1.112.565 1.96c0 .775-.127 1.465-.385 2.08-.258.607-.59 1.066-.998 1.37-.312.232-.634.376-.967.43m0-6.503v.848c-.18.053-.356.148-.53.293-.275.224-.51.594-.696 1.112-.19.52-.284 1.068-.284 1.652 0 .592.112 1.04.342 1.343.227.306.514.456.855.456.104 0 .208-.02.31-.05v.85c-.103.02-.212.024-.32.024-.59 0-1.078-.225-1.464-.672-.383-.452-.574-1.07-.574-1.85 0-1.127.244-2.08.735-2.862.418-.665.96-1.045 1.624-1.143m-10.867 6.4v-.77c.125-.043.245-.104.366-.188.25-.174.456-.42.612-.75.16-.326.286-.82.38-1.48-.208.1-.562.18-1.06.234-.107.01-.205.024-.3.037v-.797l.054-.004c.475-.03.802-.054.976-.09.18-.027.33-.077.455-.14.07-.3.105-.544.105-.73 0-.264-.092-.477-.277-.637-.188-.158-.453-.24-.805-.24-.186 0-.356.03-.508.082v-.9c.176-.038.362-.055.56-.055.574 0 1.024.155 1.36.463.334.31.502.7.502 1.167 0 .33-.04.717-.117 1.164l-.27 1.562c-.09.495-.134.896-.134 1.203 0 .217.03.5.096.854h-.85c-.05-.196-.084-.456-.102-.78-.312.338-.607.578-.88.715-.055.03-.112.055-.166.076m3.025-.01l1.04-6.272h.765l-.18 1.092c.36-.465.687-.784.978-.966.292-.18.575-.27.85-.27.388 0 .696.135.934.404.238.265.357.646.357 1.137 0 .22-.042.58-.127 1.078l-.626 3.796h-.853l.663-3.976c.063-.388.1-.677.1-.86 0-.218-.06-.387-.183-.51-.12-.125-.28-.187-.486-.187-.426 0-.81.197-1.15.584-.34.39-.59 1.068-.75 2.033l-.486 2.916h-.847zm-3.026-6.36v.9c-.42.148-.706.502-.862 1.064l-.856-.095c.3-1.06.873-1.685 1.718-1.867m0 2.656v.797c-.353.048-.6.11-.755.176-.19.087-.338.22-.444.397-.105.176-.16.378-.16.61 0 .322.085.572.257.758.17.187.4.278.688.278.14 0 .278-.022.415-.07v.767c-.222.087-.444.13-.667.13-.443 0-.812-.164-1.1-.49-.29-.327-.437-.772-.437-1.336 0-.4.086-.75.253-1.048.167-.304.4-.53.704-.69.292-.157.708-.247 1.246-.28m-7.154 3.823v-.9c.144-.052.29-.14.434-.263.236-.208.448-.59.64-1.145.194-.56.29-1.105.29-1.64 0-.572-.102-1.002-.306-1.292-.205-.29-.463-.434-.77-.434-.098 0-.194.02-.29.054v-.784c.184-.09.372-.133.56-.133.46 0 .85.214 1.166.64s.474 1.066.474 1.918c0 .782-.128 1.494-.384 2.13-.255.635-.567 1.106-.942 1.41-.294.24-.585.386-.874.438m3.917-7.568l.2-1.213h.844l-.2 1.213h-.844zm-1.233 7.446l1.04-6.27h.844l-1.038 6.27h-.845zm-2.683-6.28v.784c-.174.064-.343.187-.51.365-.26.28-.476.74-.657 1.382-.13.474-.192.862-.192 1.18l-.005.22c0 .533.104.935.312 1.21.206.27.463.41.767.41.094 0 .19-.018.285-.05v.902c-.077.014-.153.02-.23.02-.68 0-1.163-.44-1.444-1.33l-.2 1.188h-.74l1.432-8.658h.85l-.515 3.094c.274-.317.52-.54.742-.662.032-.02.068-.037.102-.055m-13.425 6.396v-.85c.166-.05.332-.15.497-.29.27-.225.507-.6.706-1.123.203-.523.304-1.06.304-1.61 0-.6-.113-1.055-.342-1.364s-.51-.464-.847-.464c-.106 0-.214.017-.32.046v-.847c.114-.018.23-.025.35-.025.58 0 1.056.23 1.434.688.377.46.565 1.112.565 1.96 0 .775-.13 1.465-.387 2.08-.256.607-.59 1.066-1 1.37-.31.232-.63.376-.963.43m2.81-.115l1.038-6.27h.846l-.17 1.032c.324-.464.612-.777.86-.936.247-.16.51-.24.79-.24.303 0 .56.1.77.302.21.198.35.49.416.872.252-.395.52-.688.798-.883.283-.193.578-.292.885-.292.394 0 .697.12.92.36.217.24.327.59.327 1.047 0 .2-.038.52-.114.97l-.668 4.036h-.848l.688-4.145c.057-.34.085-.582.085-.73 0-.214-.054-.376-.16-.488-.106-.113-.25-.168-.427-.168-.237 0-.484.09-.744.266-.26.182-.466.427-.62.74-.152.313-.29.807-.398 1.483l-.506 3.04h-.85l.7-4.235c.05-.284.075-.49.075-.616 0-.21-.053-.378-.157-.497-.106-.124-.233-.184-.39-.184-.38 0-.735.196-1.072.59-.338.398-.58 1.056-.732 1.98l-.497 2.962h-.846zm-2.81-6.387v.848c-.183.053-.36.148-.533.293-.277.224-.51.594-.695 1.112-.19.52-.284 1.067-.284 1.65 0 .594.112 1.04.344 1.345.228.306.515.456.855.456.104 0 .208-.017.312-.05v.85c-.108.02-.218.026-.326.026-.59 0-1.077-.225-1.462-.672-.384-.452-.577-1.07-.577-1.85 0-1.127.246-2.08.738-2.862.42-.665.96-1.045 1.625-1.143m-7.465 6.5v-.85c.168-.05.333-.15.5-.29.272-.224.508-.6.707-1.122.205-.523.307-1.06.307-1.61 0-.6-.118-1.055-.345-1.364-.23-.31-.51-.463-.847-.463-.106 0-.215.018-.323.047v-.847c.115-.018.232-.025.353-.025.58 0 1.057.23 1.432.688.38.46.566 1.112.566 1.96 0 .775-.128 1.465-.386 2.08-.257.607-.59 1.066-.998 1.37-.31.232-.635.376-.968.43m2.754-.115l1.434-8.657h.85l-1.435 8.66h-.85zm-2.755-6.387v.85c-.177.052-.356.147-.53.292-.274.224-.51.594-.695 1.112-.188.52-.283 1.068-.283 1.652 0 .593.113 1.04.343 1.344.228.306.514.456.855.456.104 0 .21-.018.31-.05v.85c-.103.02-.212.025-.32.025-.59 0-1.077-.224-1.463-.67-.383-.453-.575-1.07-.575-1.85 0-1.128.245-2.08.736-2.863.418-.665.96-1.045 1.622-1.143m-17.59 6.502v-.85c.168-.05.334-.15.5-.29.272-.225.506-.6.707-1.123.203-.523.305-1.06.305-1.61 0-.6-.114-1.055-.343-1.364-.23-.31-.51-.464-.847-.464-.11 0-.216.017-.322.046v-.847c.115-.018.23-.025.353-.025.58 0 1.057.23 1.433.688.378.46.565 1.112.565 1.96 0 .775-.127 1.465-.386 2.08-.256.607-.59 1.066-.996 1.37-.31.232-.633.376-.966.43m2.868-2.26l.853-.062c-.007.51.103.893.323 1.146s.523.377.902.377c.347 0 .62-.09.822-.27.202-.18.303-.41.303-.69 0-.197-.062-.38-.188-.542-.13-.16-.41-.36-.84-.59-.494-.27-.822-.475-.98-.617-.156-.143-.28-.317-.368-.525-.088-.205-.13-.438-.13-.693 0-.522.164-.954.49-1.29.328-.343.758-.51 1.29-.51.59 0 1.057.174 1.4.52.343.35.52.836.535 1.463l-.836.07c-.008-.39-.118-.697-.325-.908-.206-.214-.487-.32-.835-.32-.274 0-.497.082-.67.24-.17.158-.257.344-.257.552 0 .18.053.336.155.466.102.135.364.313.783.536.644.352 1.053.633 1.228.838.265.33.4.727.4 1.196 0 .52-.18.964-.532 1.34-.36.374-.852.56-1.485.56s-1.132-.187-1.493-.565c-.36-.377-.543-.91-.543-1.602v-.12zm10.84-.14l.852.11c-.21.785-.516 1.365-.912 1.75-.395.378-.838.564-1.324.564-.527 0-.96-.214-1.304-.642-.347-.43-.52-1.054-.52-1.868 0-.797.127-1.526.38-2.18.255-.65.575-1.124.96-1.424.388-.29.816-.44 1.287-.44.512 0 .93.186 1.25.555.325.37.484.88.48 1.525l-.834.07c0-.41-.093-.724-.278-.942-.184-.217-.412-.326-.68-.326-.3 0-.574.102-.816.31-.24.206-.45.59-.627 1.145-.18.556-.266 1.175-.266 1.85 0 .506.096.888.286 1.15.192.264.425.394.69.394.273 0 .536-.13.787-.397.252-.26.45-.662.587-1.204m-13.708-4.104v.848c-.18.053-.356.148-.53.293-.276.224-.512.594-.697 1.112-.19.52-.283 1.067-.283 1.65 0 .594.112 1.04.343 1.345.23.306.514.456.854.456.104 0 .21-.017.312-.05v.85c-.105.02-.215.026-.323.026-.593 0-1.078-.225-1.464-.672-.38-.452-.575-1.07-.575-1.85 0-1.127.248-2.08.736-2.862.42-.665.962-1.045 1.626-1.143m-10.055 6.48v-.92c.14-.06.276-.148.413-.265.28-.242.497-.59.653-1.042l.827.106c-.136.61-.453 1.145-.95 1.593-.292.27-.607.442-.942.524m0-2.96v-.815h1.398v-.22c0-.56-.107-.976-.32-1.258-.212-.28-.485-.42-.816-.42-.09 0-.176.01-.26.03v-.85c.078-.01.16-.013.24-.013.577 0 1.046.228 1.407.68.363.453.545 1.093.545 1.918 0 .31-.02.623-.062.947h-2.12zm5.346 2.87l1.436-8.66h.85l-1.434 8.66h-.852zm-5.345-6.4v.848c-.26.057-.5.207-.724.443-.3.314-.522.788-.676 1.423h1.4v.816h-1.534c-.01.126-.016.24-.016.337 0 .59.108 1.038.326 1.345.217.304.476.457.782.457.147 0 .294-.032.44-.096v.917c-.145.032-.293.05-.445.05-.364 0-.69-.1-.988-.303-.298-.205-.53-.507-.707-.91-.177-.403-.265-.888-.265-1.445 0-.736.134-1.425.4-2.063.27-.637.6-1.103.988-1.396.32-.24.66-.38 1.02-.425m-5.53 6.41v-.78c.265-.1.51-.334.74-.7.413-.673.623-1.5.623-2.48 0-.504-.108-.89-.32-1.167-.21-.277-.466-.414-.76-.414-.096 0-.19.014-.284.043v-.905c.08-.015.16-.02.237-.02.613 0 1.076.378 1.388 1.13l.56-3.375h.845l-1.434 8.658h-.78l.147-.907c-.31.452-.63.758-.965.917m0-6.403v.905c-.18.058-.353.175-.52.354-.253.263-.454.657-.606 1.185-.152.53-.23.967-.23 1.322l-.006.256c0 .518.116.944.35 1.276.178.254.415.382.707.382.106 0 .207-.02.305-.058v.78c-.18.087-.366.13-.555.13-.457 0-.846-.213-1.164-.64-.32-.43-.483-1.075-.483-1.933 0-.77.127-1.47.383-2.11.254-.642.57-1.112.944-1.414.292-.238.583-.38.874-.435m-7.87 6.51v-.85c.166-.05.333-.15.5-.29.27-.226.506-.6.707-1.124.202-.523.302-1.06.302-1.61 0-.6-.115-1.055-.342-1.364-.23-.31-.51-.463-.846-.463-.11 0-.218.016-.323.045v-.847c.114-.018.23-.025.35-.025.578 0 1.06.23 1.43.688.38.46.568 1.113.568 1.96 0 .776-.127 1.466-.387 2.08-.255.608-.588 1.067-.996 1.37-.312.233-.633.377-.966.43m0-6.502v.848c-.18.053-.358.148-.532.293-.276.223-.51.593-.696 1.11-.19.52-.282 1.07-.282 1.653 0 .593.11 1.04.343 1.344.23.306.51.456.854.456.105 0 .21-.018.313-.05v.85c-.108.02-.215.025-.324.025-.59 0-1.077-.225-1.462-.672-.382-.452-.576-1.07-.576-1.85 0-1.127.247-2.08.737-2.862.42-.665.963-1.045 1.627-1.143M82.83 49.04v-.92c.137-.06.276-.147.41-.263.28-.242.498-.59.655-1.042l.828.106c-.137.613-.456 1.147-.954 1.595-.29.27-.604.442-.94.524m0-2.96v-.816h1.396v-.22c0-.56-.108-.976-.32-1.258-.213-.28-.486-.42-.816-.42-.09 0-.176.01-.258.03v-.85c.078-.01.16-.013.24-.013.575 0 1.047.227 1.408.68.366.452.546 1.092.546 1.917 0 .31-.022.623-.062.947h-2.132zm2.748 2.87l1.036-6.273h.77l-.178 1.092c.357-.466.682-.785.974-.967.293-.18.577-.27.853-.27.384 0 .695.135.934.404.237.265.355.646.355 1.137 0 .22-.043.58-.13 1.077l-.625 3.797h-.85l.662-3.976c.064-.387.096-.676.096-.86 0-.217-.06-.386-.18-.51-.122-.124-.282-.186-.49-.186-.425 0-.808.196-1.148.583-.342.39-.592 1.068-.75 2.033l-.488 2.916h-.845zm7.315-.87l-.15.876c-.202.064-.4.1-.588.1-.317 0-.567-.088-.753-.262-.183-.172-.278-.405-.278-.695 0-.14.047-.457.13-.953l.597-3.642h-.665l.136-.827H92l.26-1.54.97-.74-.378 2.28h.827l-.14.828h-.825l-.578 3.466c-.073.444-.11.705-.11.783 0 .14.033.24.092.303.06.065.155.094.28.094.187 0 .352-.024.504-.072M82.84 42.55v.848c-.26.057-.5.207-.725.443-.3.315-.523.79-.672 1.424h1.398v.815h-1.534c-.01.125-.017.24-.017.336 0 .59.11 1.038.325 1.345.22.305.477.458.782.458.15 0 .296-.032.444-.096v.918c-.147.032-.294.05-.45.05-.36 0-.69-.1-.986-.303-.296-.205-.532-.507-.707-.91-.176-.403-.264-.888-.264-1.445 0-.735.133-1.424.403-2.062.268-.637.598-1.103.986-1.396.317-.24.655-.382 1.02-.426m-7.74 6.412v-.768c.123-.044.246-.105.364-.19.25-.172.457-.42.613-.748.16-.326.285-.82.38-1.48-.208.1-.563.18-1.06.234-.11.01-.207.024-.3.037v-.798l.053-.004c.475-.028.802-.053.978-.088.178-.028.33-.078.455-.14.07-.3.102-.545.102-.73 0-.265-.09-.478-.275-.638-.186-.158-.455-.24-.804-.24-.188 0-.357.03-.508.082v-.9c.175-.04.36-.056.56-.056.57 0 1.024.155 1.36.463.333.31.5.7.5 1.167 0 .33-.037.717-.115 1.164l-.27 1.562c-.09.495-.134.896-.134 1.203 0 .218.034.5.098.855h-.85c-.05-.196-.084-.456-.102-.78-.312.338-.606.578-.88.715-.056.03-.11.056-.166.077m2.958-.01l1.43-8.66h.852l-1.435 8.66h-.847zM75.1 42.59v.9c-.42.148-.71.502-.862 1.064l-.856-.095c.3-1.06.87-1.686 1.718-1.868m0 2.656v.797c-.353.047-.602.11-.753.175-.192.087-.34.22-.448.397-.107.176-.163.378-.163.61 0 .322.087.572.26.758.17.186.4.277.685.277.14 0 .28-.022.417-.07v.767c-.223.086-.444.13-.668.13-.442 0-.81-.165-1.1-.49-.29-.328-.436-.773-.436-1.337 0-.398.082-.75.25-1.047.167-.304.403-.53.704-.69.293-.157.708-.247 1.248-.28M62.584 49.02v-.918c.138-.06.276-.15.412-.265.278-.242.497-.59.654-1.042l.828.106c-.137.613-.454 1.147-.953 1.595-.29.27-.605.442-.94.524m0-2.96v-.816h1.396v-.22c0-.56-.11-.976-.32-1.258-.21-.28-.483-.42-.815-.42-.09 0-.176.01-.26.03v-.85c.08-.01.16-.013.243-.013.575 0 1.044.227 1.406.68.365.452.546 1.092.546 1.917 0 .31-.022.623-.064.947h-2.132zm2.68 2.87l1.432-8.66h.85l-1.433 8.66h-.85zm6.846-.87l-.146.876c-.203.064-.4.1-.59.1-.314 0-.567-.088-.75-.262-.185-.172-.277-.405-.277-.695 0-.14.042-.457.125-.953l.6-3.642H70.4l.138-.827h.668l.257-1.54.97-.74-.376 2.28h.826l-.136.828h-.828l-.58 3.466c-.07.444-.106.705-.106.783 0 .14.03.24.09.303.06.065.154.094.28.094.188 0 .354-.024.504-.072m-9.526-5.53v.848c-.26.057-.5.207-.725.443-.3.315-.522.79-.673 1.424h1.397v.815h-1.53c-.01.125-.015.24-.015.336 0 .59.108 1.038.324 1.345.22.305.476.458.782.458.15 0 .295-.032.44-.096v.918c-.144.032-.294.05-.447.05-.362 0-.69-.1-.988-.303-.298-.205-.532-.507-.708-.91-.175-.403-.264-.888-.264-1.445 0-.735.136-1.424.4-2.062.272-.637.6-1.103.99-1.396.315-.24.656-.382 1.017-.426M49.255 49.02v-.918c.136-.06.272-.148.41-.265.28-.242.496-.59.653-1.042l.827.106c-.136.613-.454 1.147-.953 1.595-.29.27-.604.442-.938.524m0-2.96v-.816h1.394v-.22c0-.56-.107-.976-.32-1.258-.212-.28-.484-.42-.816-.42-.088 0-.175.01-.258.03v-.85c.078-.01.16-.013.24-.013.576 0 1.045.227 1.407.68.367.452.547 1.092.547 1.917 0 .31-.022.623-.064.947h-2.13zM52 48.93l1.04-6.273h.765l-.175 1.092c.36-.466.684-.785.977-.967.292-.18.576-.27.85-.27.384 0 .695.135.935.404.237.265.357.646.357 1.137 0 .22-.046.58-.13 1.077l-.627 3.797h-.85l.66-3.976c.064-.387.1-.676.1-.86 0-.217-.063-.386-.18-.51-.122-.124-.285-.186-.492-.186-.42 0-.806.196-1.147.583-.34.39-.59 1.068-.75 2.033l-.486 2.916h-.845zm-2.746-6.4v.847c-.262.057-.503.207-.726.443-.3.314-.523.788-.673 1.423h1.4v.815H47.72c-.01.126-.016.24-.016.337 0 .59.11 1.038.324 1.345.22.304.478.457.784.457.15 0 .297-.032.444-.096v.92c-.147.03-.298.05-.45.05-.363 0-.692-.1-.987-.304-.3-.205-.536-.507-.71-.91-.176-.403-.263-.888-.263-1.445 0-.734.134-1.423.4-2.06.27-.638.598-1.104.987-1.397.317-.24.658-.382 1.02-.426m-12.87 6.515v-.85c.168-.05.334-.15.5-.29.27-.225.506-.6.708-1.123.202-.524.303-1.06.303-1.61 0-.6-.115-1.056-.342-1.365-.228-.31-.512-.463-.846-.463-.11 0-.216.017-.322.046v-.847c.113-.017.23-.024.35-.024.58 0 1.058.23 1.434.688.376.46.564 1.112.564 1.96 0 .775-.13 1.465-.387 2.08-.254.607-.588 1.066-.996 1.37-.31.232-.632.376-.965.43m2.87-2.26l.85-.062c-.005.51.103.893.323 1.146.22.253.522.377.902.377.35 0 .62-.09.823-.268.202-.182.302-.41.302-.69 0-.198-.064-.38-.19-.543-.127-.16-.408-.36-.838-.59-.494-.27-.822-.475-.98-.617-.16-.144-.28-.318-.37-.526-.086-.204-.13-.437-.13-.692 0-.522.165-.954.492-1.29.327-.343.76-.51 1.29-.51.59 0 1.054.174 1.4.52.34.35.52.836.535 1.463l-.836.07c-.01-.39-.12-.696-.327-.907-.207-.214-.488-.32-.836-.32-.275 0-.497.082-.67.24-.17.158-.256.344-.256.552 0 .182.054.337.156.467.1.135.362.313.783.536.642.352 1.05.633 1.225.838.264.33.4.727.4 1.196 0 .52-.18.964-.534 1.34-.36.374-.85.56-1.483.56-.635 0-1.135-.187-1.494-.565-.363-.378-.543-.912-.543-1.603v-.12zm-2.87-4.243v.85c-.18.052-.357.147-.53.292-.277.224-.51.594-.698 1.112-.19.52-.283 1.068-.283 1.652 0 .593.115 1.04.344 1.344.227.306.51.456.853.456.106 0 .21-.018.314-.05v.85c-.106.02-.213.025-.322.025-.593 0-1.08-.224-1.463-.67-.384-.453-.576-1.07-.576-1.85 0-1.128.247-2.08.737-2.863.42-.665.963-1.045 1.625-1.143m-12.6 6.388v-.38l.978-5.89h.844l-1.04 6.27h-.782zm0-5.887l.064-.383h-.065v.383zm1.17-1.558l.2-1.213H26l-.197 1.213h-.847zm.92 7.446l1.038-6.27h.846l-.17 1.032c.326-.464.613-.777.86-.936.247-.16.51-.24.79-.24.302 0 .56.1.77.302.21.198.35.49.416.872.252-.395.518-.688.798-.883.283-.193.578-.292.886-.292.394 0 .697.12.92.36.215.24.325.59.325 1.047 0 .2-.036.52-.113.97l-.67 4.036h-.843l.683-4.145c.057-.34.087-.582.087-.73 0-.214-.054-.376-.16-.488-.106-.113-.25-.168-.43-.168-.236 0-.48.09-.742.266-.258.182-.466.427-.62.74-.152.313-.288.807-.4 1.483l-.5 3.04h-.854l.704-4.235c.048-.284.073-.49.073-.616 0-.21-.05-.378-.156-.497-.106-.124-.234-.184-.392-.184-.375 0-.73.196-1.068.59-.34.398-.582 1.056-.732 1.98l-.498 2.962h-.847zm-2.09-6.27v.383l-.074.444h-.827l-.577 3.466c-.07.444-.108.705-.108.783 0 .14.028.24.09.302.062.064.153.093.28.093.188 0 .352-.022.503-.07l-.145.876c-.204.065-.4.1-.59.1-.316 0-.567-.087-.753-.26-.047-.048-.092-.098-.128-.153V47l.576-3.512h-.576v-.314l.15-.424-.15-.09v.285l.045-.284h.67l.26-1.54.97-.74-.38 2.28h.765zm0 5.89l-.063.38h.063v-.38zm-2.33-5.89v.284l-.09.543h.09v-.314l-.198.567c-.15-.136-.306-.202-.47-.202-.313 0-.622.213-.933.638-.31.422-.552 1.17-.73 2.24l-.42 2.516H17.9l1.038-6.27h.748l-.21 1.28c.5-.948.998-1.423 1.5-1.423.136 0 .297.047.48.144m0 4.338l-.02.132c-.086.496-.128.814-.128.952 0 .214.05.393.148.543V47zm-6.305 2.024v-.918c.14-.06.276-.15.415-.265.278-.242.495-.59.652-1.042l.828.107c-.138.612-.454 1.146-.954 1.594-.287.27-.6.443-.94.525m0-2.96v-.815h1.398v-.22c0-.56-.108-.976-.32-1.258-.213-.28-.486-.42-.817-.42-.087 0-.173.01-.26.03v-.85c.08-.01.163-.013.244-.013.575 0 1.046.226 1.41.68.36.45.545 1.09.545 1.916 0 .31-.024.623-.066.947H15.15zm0-3.53v.848c-.256.057-.5.207-.724.443-.298.314-.522.788-.672 1.423h1.398v.814H13.62c-.01.126-.018.24-.018.337 0 .59.11 1.04.325 1.346.22.304.478.457.784.457.15 0 .296-.032.44-.096v.918c-.144.032-.292.05-.446.05-.363 0-.69-.1-.987-.303-.296-.205-.533-.507-.708-.91-.117-.267-.193-.563-.233-.897v-1.15c.053-.513.178-1 .37-1.46.268-.638.598-1.104.987-1.397.316-.24.656-.38 1.018-.425m-2.374.2l.03-.07h-.03v.07zM0 48.93l1.436-8.657h.916L.92 48.93H0zm12.776-6.27v.07l-2.813 6.2h-.94l-.818-6.27h.823l.427 3.454c.046.392.103 1.01.17 1.85.165-.45.375-.958.63-1.53l1.656-3.773h.867zm0 3.154c-.02.196-.03.397-.03.6 0 .193.01.375.03.55v-1.15zM2.44 48.93l1.038-6.27h.765l-.176 1.092c.357-.465.684-.784.973-.966.295-.18.58-.27.853-.27.385 0 .696.135.934.404.24.265.356.646.356 1.137 0 .22-.04.58-.124 1.077l-.63 3.797h-.85l.66-3.974c.064-.388.097-.677.097-.86 0-.218-.06-.387-.18-.51-.12-.125-.283-.187-.487-.187-.426 0-.81.195-1.15.582-.34.39-.59 1.07-.75 2.034l-.485 2.916H2.44z"/><path clip-path="url(#b)" fill="#FFF" d="M178.925 46.788l.85-.064c-.006.51.104.892.323 1.146.224.252.524.376.904.376.346 0 .62-.09.822-.27.2-.18.302-.407.302-.687 0-.2-.06-.384-.19-.546-.127-.16-.407-.36-.837-.59-.497-.27-.825-.475-.98-.617-.16-.144-.28-.318-.368-.526-.09-.205-.132-.437-.132-.692 0-.524.165-.956.492-1.293.328-.343.76-.51 1.29-.51.592 0 1.056.174 1.4.522.342.347.52.834.534 1.462l-.833.07c-.01-.393-.12-.7-.33-.91-.204-.214-.487-.32-.834-.32-.276 0-.5.08-.67.24-.172.158-.26.344-.26.55 0 .184.056.338.155.468.105.136.365.316.783.538.645.35 1.054.632 1.227.838.265.33.4.727.4 1.195 0 .52-.18.965-.532 1.34-.358.374-.852.56-1.484.56-.635 0-1.133-.186-1.496-.564-.36-.377-.54-.91-.54-1.602v-.117z"/></svg>