<svg xmlns="http://www.w3.org/2000/svg" width="612" height="792" viewBox="0 0 612 792"><path fill="#FFF" d="M120.828 129.397c4.462 0 11.155 2.23 17.848 6.693L488.94 379.268c20.08 13.386 20.08 37.927 0 51.312L140.907 682.682c-6.693 6.693-13.386 8.924-17.848 8.924-11.157 0-17.85-8.924-17.85-24.54l-2.23-510.897c0-15.62 6.692-26.774 17.847-26.774zm0-22.31c-11.155 0-20.08 4.462-26.772 11.155-6.693 6.693-13.386 17.848-13.386 37.927v510.894c0 33.465 22.31 46.85 42.39 46.85 11.154 0 22.31-4.46 33.464-11.153l348.034-252.1c15.617-11.155 24.54-26.77 24.54-44.62 0-17.848-8.923-33.464-26.77-44.62L154.293 118.243c-11.155-6.693-22.31-11.155-33.465-11.155z"/></svg>