<svg id="Capa_1" xmlns="http://www.w3.org/2000/svg" viewBox="0 0 1105 689"><style>.st0{opacity:0.3;} .st1{fill:#F49926;}</style><g class="st0"><path class="st1" d="M33.5 409.5c.4 0 .8.2 1.3.6L56.2 429c.4.4.7.8.8 1.3.3 1 .1 2.2-.8 3l-21.1 18.6c-.5.4-.9.6-1.3.6-.7 0-1.1-.6-1.1-1.7V443c0-1.8-1.5-3.2-3.2-3.2H18c-1.8 0-3.2-1.5-3.2-3.2v-10.1c0-1.8 1.5-3.2 3.2-3.2h11.2c1.8 0 3.2-1.4 3.2-3.2v-8.7c0-1.3.4-1.9 1.1-1.9zm0-1.7c-1.3 0-2.7 1-2.7 3.3v8.7c0 .9-.7 1.6-1.6 1.6H18c-2.7 0-4.8 2.2-4.8 4.8v10.1c0 2.7 2.2 4.8 4.8 4.8h11.5c.9 0 1.6.7 1.6 1.6v7.8c0 2.3 1.4 3.3 2.7 3.3.8 0 1.6-.3 2.4-1l21.1-18.6c1.4-1.2 1.9-3 1.3-4.7-.3-.8-.7-1.4-1.3-2l-21.4-18.9c-.8-.4-1.6-.8-2.4-.8zM1067 14.5h11.4c2 0 3.6 1.6 3.6 3.6v12.6c0 2 1.6 3.6 3.6 3.6h9.8c2 0 2.5 1.2 1.2 2.7l-21.2 24.1c-.7.7-1.5 1.1-2.4 1.1s-1.7-.4-2.4-1.1l-20.9-23.7c-1.3-1.5-.8-2.7 1.2-2.7h8.8c2 0 3.6-1.6 3.6-3.6V18.2c0-2.1 1.7-3.7 3.7-3.7zm0-1.9c-3.1 0-5.6 2.5-5.6 5.5V31c0 .9-.8 1.7-1.7 1.7h-8.8c-2.5 0-3.3 1.4-3.6 1.9-.3.6-.7 2.1.9 4l20.9 23.8c1 1.1 2.4 1.8 3.8 1.8s2.8-.6 3.8-1.8l21.2-24.1c1.6-1.9 1.2-3.4.9-4-.3-.6-1.1-1.9-3.6-1.9h-9.8c-.9 0-1.7-.8-1.7-1.7V18.2c0-3.1-2.5-5.6-5.5-5.6H1067zM74.9 199c.6 0 1.2.5 1.6 1.6l4.2 10.2c.9 2.2 3.5 4.1 5.8 4.3l11.3 1c2.3.2 2.8 1.7 1.2 3.3l-8.5 8.3c-1.7 1.6-2.6 4.8-2.1 7.1l2.2 9.5c.4 1.6-.2 2.6-1.3 2.6-.4 0-.9-.1-1.5-.4l-9.3-4.9c-1-.5-2.4-.8-3.7-.8-1.4 0-2.7.3-3.7.8l-9.3 4.9c-.6.3-1.1.4-1.5.4-1.1 0-1.7-1-1.3-2.6l2.3-9.5c.5-2.3-.4-5.4-2.1-7.1l-8.5-8.3c-1.7-1.6-1.1-3.1 1.2-3.3l11.3-1c2.3-.2 4.9-2.1 5.8-4.3l4.2-10.2c.5-1 1.1-1.6 1.7-1.6zm0-1.9c-.8 0-2.4.4-3.4 2.8l-4.2 10.2c-.6 1.5-2.6 3-4.2 3.1l-11.3 1c-2.7.2-3.5 1.8-3.7 2.4-.2.6-.6 2.3 1.4 4.2l8.5 8.3c1.2 1.1 1.9 3.6 1.5 5.3l-2.3 9.5c-.5 1.9.1 3.1.6 3.8.6.8 1.5 1.2 2.6 1.2.8 0 1.6-.2 2.4-.7l9.3-4.9c.7-.4 1.8-.6 2.8-.6 1.1 0 2.1.2 2.8.6l9.3 4.9c.8.4 1.7.7 2.4.7 1 0 2-.4 2.6-1.2.5-.7 1-1.8.6-3.8l-2.2-9.5c-.4-1.6.3-4.1 1.5-5.2l8.5-8.3c1.9-1.9 1.6-3.6 1.4-4.2-.2-.6-1.1-2.2-3.7-2.4l-11.3-1c-1.6-.1-3.6-1.6-4.2-3.1L78.4 200c-1.1-2.5-2.7-2.9-3.5-2.9zM69.8 75.4c3.9 0 7 3.2 7 7v18.7c0 3.4-2.4 6.2-5.6 6.9.3 3 2.1 5.3 5.2 7.3-1.2.5-2.5.7-3.8.7-5.4 0-11-3.8-12.6-7.9H34.7c-3.9 0-7-3.2-7-7V82.4c0-3.9 3.2-7 7-7h35.1zM66 96.8c2.7 0 4.8-2.2 4.8-4.8 0-2.7-2.2-4.8-4.8-4.8-2.7 0-4.8 2.2-4.8 4.8 0 2.6 2.1 4.8 4.8 4.8zm-13.7 0c2.7 0 4.8-2.2 4.8-4.8 0-2.7-2.2-4.8-4.8-4.8-2.7 0-4.8 2.2-4.8 4.8 0 2.6 2.1 4.8 4.8 4.8zm-13.5 0c2.7 0 4.8-2.2 4.8-4.8 0-2.7-2.2-4.8-4.8-4.8-2.7 0-4.8 2.2-4.8 4.8-.1 2.6 2.1 4.8 4.8 4.8zm31-23.6H34.7c-5.1 0-9.3 4.2-9.3 9.3v18.7c0 5.1 4.2 9.3 9.3 9.3h23.9c2.6 4.4 8.6 7.9 14 7.9 1.6 0 3.2-.3 4.6-.8.8-.3 1.3-1 1.4-1.9.1-.8-.3-1.7-1-2.1-2-1.2-3.2-2.5-3.8-4 3.1-1.5 5.2-4.7 5.2-8.3V82.4c.1-5.1-4-9.2-9.2-9.2zM66 94.5c-1.4 0-2.6-1.2-2.6-2.6 0-1.4 1.2-2.6 2.6-2.6 1.4 0 2.6 1.2 2.6 2.6 0 1.5-1.2 2.6-2.6 2.6zm-13.7 0c-1.4 0-2.6-1.2-2.6-2.6 0-1.4 1.2-2.6 2.6-2.6 1.4 0 2.6 1.2 2.6 2.6 0 1.5-1.2 2.6-2.6 2.6zm-13.5 0c-1.4 0-2.6-1.2-2.6-2.6 0-1.4 1.2-2.6 2.6-2.6 1.4 0 2.6 1.2 2.6 2.6-.1 1.5-1.2 2.6-2.6 2.6zm809 70.7c8.7.1 15.8 7.2 15.8 15.9 0 8.8-7.1 15.9-15.9 15.9-6.6 0-12.2-4-14.6-9.7h-9c-2.4 5.7-8.1 9.7-14.6 9.7-8.8 0-15.9-7.1-15.9-15.9 0-8.6 6.9-15.7 15.4-15.9h38.8zm0-2.8h-39c-10.1.4-18 8.5-18 18.6 0 10.3 8.4 18.7 18.7 18.7 6.9 0 13.1-3.7 16.4-9.7h5.5c3.2 5.9 9.5 9.7 16.4 9.7 10.3 0 18.7-8.4 18.7-18.7-.1-10.1-8.4-18.5-18.7-18.6z"/><path class="st1" d="M816.4 182.8h-4.5v4.4c0 1.2-1 2.2-2.2 2.2-1.2 0-2.2-1-2.2-2.2v-4.4h-4.2c-1.2 0-2.2-1-2.2-2.2 0-1.2 1-2.2 2.2-2.2h4.2V174c0-1.2 1-2.2 2.2-2.2 1.2 0 2.2 1 2.2 2.2v4.5h4.5c1.2 0 2.2 1 2.2 2.2 0 1.1-1 2.1-2.2 2.1zm26 .9c-1.6 0-2.9-1.3-2.9-2.9 0-1.6 1.3-2.9 2.9-2.9 1.6 0 2.9 1.3 2.9 2.9 0 1.6-1.3 2.9-2.9 2.9zm6.2 6.2c-1.6 0-2.9-1.3-2.9-2.9 0-1.6 1.3-2.9 2.9-2.9 1.6 0 2.9 1.3 2.9 2.9 0 1.6-1.3 2.9-2.9 2.9zm0-12.3c-1.6 0-2.9-1.3-2.9-2.9 0-1.6 1.3-2.9 2.9-2.9 1.6 0 2.9 1.3 2.9 2.9 0 1.6-1.3 2.9-2.9 2.9zm6.2 6.1c-1.6 0-2.9-1.3-2.9-2.9 0-1.6 1.3-2.9 2.9-2.9 1.6 0 2.9 1.3 2.9 2.9 0 1.6-1.3 2.9-2.9 2.9zM328 381.9c1.3 0 2.6.2 3.9.5 8.9 2.1 14.3 11.1 12.2 20-1.8 7.6-8.6 12.6-16.1 12.6-1.3 0-2.6-.2-3.9-.5-1.8-.4-3.5-1.2-5-2.1-3.2 2.8-12.5 10.9-13.4 11.6-.8.6-1.8.9-2.8.9-1.1 0-2.2-.4-3-1.5-1.5-1.9-.7-4.1.8-5.4.9-.8 9.5-8.2 13.1-11.3-2.1-3.6-2.9-7.9-1.8-12.3 1.7-7.4 8.5-12.5 16-12.5zm0 26.5c4.5 0 8.5-3 9.6-7.6 1.3-5.3-2-10.7-7.3-12-.8-.2-1.6-.3-2.3-.3-4.5 0-8.5 3-9.6 7.6-1.3 5.3 2 10.7 7.3 12 .7.2 1.5.3 2.3.3zm0-28.4c-8.5 0-15.9 5.8-17.9 14.1-1 4.1-.5 8.4 1.3 12.3-3.9 3.4-11 9.6-11.9 10.3-2.2 1.9-3.3 5.2-1 8 1.1 1.4 2.7 2.2 4.6 2.2 1.4 0 2.8-.5 3.9-1.3.7-.5 4.9-4.1 12.5-10.8 1.4.7 2.8 1.3 4.3 1.6 1.4.3 2.9.5 4.4.5 8.5 0 15.9-5.8 17.9-14.1 2.4-9.9-3.7-19.9-13.6-22.3-1.6-.3-3.1-.5-4.5-.5zm0 26.4c-.6 0-1.3-.1-1.9-.2-2.1-.5-3.8-1.8-4.9-3.6-1.1-1.8-1.4-4-.9-6 .9-3.6 4.1-6.1 7.8-6.1.6 0 1.3.1 1.9.2 4.3 1 6.9 5.4 5.9 9.6-1 3.6-4.2 6.1-7.9 6.1zm-136.3-95.3c.2 0 .3 0 .4.1l4.9 2c.5.2.9.8.9 1.4l-.3 4.6c0 .5.3 1.3.7 1.6l1.7 1.6c.3.4 1 .6 1.5.6h.1l4.6-.5h.1c.5 0 1.1.3 1.3.8l2.1 4.8c.2.5.1 1.2-.4 1.6l-3.5 3.1c-.4.4-.7 1.1-.7 1.6v2.3c0 .5.3 1.3.7 1.6l3.6 2.9c.4.3.6 1 .4 1.5l-2 4.9c-.2.5-.8.9-1.3.9h-.1l-4.6-.3h-.1c-.5 0-1.2.3-1.6.7l-1.6 1.7c-.4.4-.7 1.1-.6 1.7l.5 4.6c.1.5-.3 1.2-.8 1.4l-4.8 2.1c-.2.1-.3.1-.5.1-.4 0-.8-.2-1.1-.4l-3.1-3.5c-.3-.4-1-.7-1.6-.7h-2.4c-.5 0-1.2.3-1.6.7l-2.9 3.6c-.2.3-.7.5-1.1.5-.2 0-.3 0-.4-.1l-4.9-2c-.5-.2-.9-.8-.9-1.4l.3-4.6c0-.5-.3-1.3-.7-1.6l-1.7-1.6c-.3-.4-1-.6-1.5-.6h-.2l-4.6.5h-.1c-.5 0-1.1-.3-1.3-.8l-2.1-4.8c-.2-.5-.1-1.2.4-1.6l3.5-3.1c.4-.4.7-1.1.7-1.6v-2.3c0-.5-.3-1.3-.7-1.6l-3.6-2.9c-.4-.3-.6-1-.4-1.5l2-4.9c.2-.5.8-.9 1.3-.9h.1l4.6.3h.1c.5 0 1.2-.3 1.6-.7l1.6-1.7c.4-.4.7-1.1.6-1.7l-.5-4.6c-.1-.5.3-1.2.8-1.4l4.8-2.1c.2-.1.3-.1.5-.1.4 0 .8.2 1.1.5l3.1 3.5c.3.4 1 .7 1.6.7h2.5c.5 0 1.2-.3 1.6-.7l2.9-3.6c.3-.4.7-.6 1.1-.6zm-6.5 33.6c3.5 0 6.8-2.1 8.2-5.5 1.8-4.5-.4-9.6-4.9-11.4-1.1-.4-2.2-.6-3.3-.6-3.5 0-6.8 2.1-8.2 5.5-1.8 4.5.4 9.6 4.9 11.4 1.2.4 2.3.6 3.3.6zm6.5-35.5c-1 0-2 .5-2.6 1.2l-2.9 3.6s-.1 0-.1.1h-2.3s-.1 0-.2-.1l-3-3.4c-.6-.7-1.6-1.1-2.5-1.1-.4 0-.9.1-1.2.2l-4.9 2.1c-1.3.5-2.1 2-2 3.4l.5 4.5v.1l-1.6 1.7-.1.1h-.1l-4.6-.3h-.2c-1.3 0-2.6.9-3.1 2.1l-2 4.9c-.5 1.3-.1 2.9 1 3.8l3.6 2.9s0 .1.1.1v2.4s0 .1-.1.1l-3.5 3c-1 .9-1.4 2.5-.9 3.8l2.1 4.8c.5 1.2 1.7 2 3 2h.3l4.5-.5h.1l1.7 1.6s.1.1.1.2l-.3 4.6c-.1 1.4.8 2.8 2.1 3.3l4.9 2c.4.1.8.2 1.2.2 1 0 2-.5 2.6-1.2l2.9-3.6.1-.1h2.4s.1 0 .1.1l3 3.4c.6.7 1.5 1.1 2.5 1.1.4 0 .9-.1 1.3-.3l4.8-2.1c1.3-.5 2.1-2 2-3.3l-.5-4.5s0-.1.1-.1l1.6-1.7.1-.1h.1l4.6.3h.2c1.3 0 2.6-.8 3.1-2.1l2-4.9c.5-1.3.1-2.9-1-3.8l-3.6-2.9s0-.1-.1-.1v-2.4s0-.1.1-.1l3.5-3c1-.9 1.4-2.5.9-3.8l-2.1-4.9c-.5-1.2-1.7-2-3-2h-.3l-4.5.5h-.1l-1.7-1.6s0-.1-.1-.1l.3-4.6c.1-1.4-.8-2.8-2.1-3.3l-4.9-2c-.5-.1-.9-.2-1.3-.2zm-6.5 33.5c-.9 0-1.7-.2-2.5-.5-3.5-1.4-5.2-5.4-3.8-8.9 1.1-2.6 3.6-4.3 6.4-4.3.9 0 1.7.2 2.5.5 1.7.7 3 2 3.8 3.7s.7 3.6.1 5.3c-1.1 2.5-3.6 4.2-6.5 4.2zM75.6 624.4c.7 0 1.4.3 1.9.8l4.1 4.1c1 1 1 2.7 0 3.8l-8.7 8.7c-.3.3-.5.7-.6 1.1-.3.9-.1 2 .6 2.7l8.7 8.6c1 1 1 2.7 0 3.8l-4.1 4.1c-.5.5-1.2.8-1.9.8s-1.4-.3-1.9-.8l-8.6-8.7c-.5-.5-1.2-.8-1.9-.8s-1.4.3-1.9.8l-8.7 8.7c-.5.5-1.2.8-1.9.8s-1.4-.3-1.9-.8l-4.1-4.1c-1-1-1-2.7 0-3.8l8.6-8.6c.7-.7.9-1.8.6-2.7-.1-.4-.3-.8-.6-1.1l-8.6-8.6c-1-1-1-2.7 0-3.8l4.1-4.1c.5-.5 1.2-.8 1.9-.8s1.4.3 1.9.8l8.7 8.6c.5.5 1.2.8 1.9.8s1.4-.3 1.9-.8l8.6-8.6c.5-.6 1.2-.9 1.9-.9zm0-1.7c-1.2 0-2.2.5-3.1 1.3l-8.6 8.6c-.2.2-.4.3-.7.3-.3 0-.5-.1-.7-.3l-8.7-8.6c-.8-.8-1.9-1.3-3.1-1.3s-2.3.5-3.1 1.3l-4.1 4.1c-1.7 1.7-1.7 4.4 0 6.1l8.6 8.6c.1.1.2.2.2.4.1.3.1.7-.2 1l-8.6 8.6c-1.7 1.7-1.7 4.4 0 6.1l4.1 4.1c.8.8 1.9 1.3 3.1 1.3s2.3-.5 3.1-1.3l8.7-8.6c.2-.2.4-.3.7-.3.3 0 .5.1.7.3l8.6 8.6c.8.8 1.9 1.3 3.1 1.3 1.2 0 2.2-.5 3.1-1.3l4.1-4.1c1.7-1.7 1.7-4.4 0-6.1l-8.7-8.6c-.3-.3-.3-.7-.2-1 .1-.2.1-.3.2-.4l8.7-8.7c1.7-1.7 1.7-4.4 0-6.1l-4.1-4.1c-.9-.7-2-1.2-3.1-1.2zm116.9-117.5h.2c3.1.3 10.6 1.8 13.9 8.4.2.5.6 1.9.6 2.9v4.3c0 .7-.4 1-.8 1-.3 0-.6-.2-.8-.5-2.5-3.3-4.8-4.9-6.9-5.6-.2-.1-.4-.1-.6-.1-.5 0-.8.3-.8 1v24.3c0 8.1-7.2 11.1-13.7 11.1-6.5 0-13.1-3.4-13.1-9.9s6.6-10.9 13.1-10.9c2.1 0 5.3.1 7.7 1.8v-26.5c-.1-.6.4-1.3 1.2-1.3zm0-1.9c-1.8 0-3.2 1.4-3.2 3.2V530c-2-.6-4-.7-5.8-.7-7.2 0-15 4.9-15 12.8 0 7.8 7.5 11.8 15 11.8 7.8 0 15.6-4 15.6-13.1V518c1.6.8 3.3 2.3 4.9 4.5.5.7 1.4 1.2 2.4 1.2 1.5 0 2.7-1.2 2.7-2.9v-4.3c0-1.2-.4-3-.8-3.8-3.8-7.4-12.1-9.1-15.4-9.4h-.4zm55.9-357.4c.8 0 1.3.7 1.3 2v7.6c0 2.6 1.9 3 3 3 15.3 0 26.7 22.1 10.7 34.1 1-10.3-2.8-12.6-11.5-12.6-2.4 0-2.4 2.2-2.4 2.2v8.9c0 1.3-.6 2-1.5 2-.4 0-1-.2-1.5-.6l-22.9-20.6c-1.6-1.2-1.6-3.2 0-4.4l23.3-20.9c.5-.5 1-.7 1.5-.7zm0-2c-.9 0-1.8.3-2.6 1l-.1.1-23.3 21c-1.2.9-1.9 2.3-1.9 3.7 0 1.4.7 2.7 1.9 3.7l22.8 20.6.1.1c.9.7 1.8 1 2.7 1 1.6 0 3.4-1.2 3.4-4v-8.9c0-.3.1-.3.5-.3 4.3 0 6.9.6 8.2 2.1 1.3 1.5 1.8 4.2 1.4 8.4-.1.8.3 1.5 1 1.9.3.2.6.2.9.2.4 0 .8-.1 1.2-.4 7.5-5.6 10.3-14.1 7.4-22.7-2.9-8.7-10.8-14.9-19.2-14.9-.9 0-1-.2-1-1v-7.6c-.2-2.7-1.8-4-3.4-4zm774.2 15c5.8 0 12.7 1.3 14.7 7.9 1.8 6.2-2.1 12.3-6 15.3-2.7 2.2-5.7 6.9-6.1 9.7-.1.5-.3 1.6-1.7 1.6h-2.1c-1.1 0-1.5-1.1-1.5-1.7-.1-3.4-1-6.9 2-10.4 2.5-3 5-5.8 5-8.4 0-2.7-2-5.1-5.9-5.2-1.9 0-4.5.7-6.4 1.7-.3.2-.7.3-1.1.3-.5 0-1.1-.2-1.5-1-.7-1.4-1.2-2.4-1.7-3.5s0-1.9.7-2.3c2.9-1.8 5.9-4 11.6-4zm0-1.9c-5.9 0-9.2 2.1-12.1 4l-.6.4c-1.7 1.1-2.3 3-1.4 4.8l.4.8c.4.8.8 1.7 1.3 2.7.7 1.3 1.8 2.1 3.2 2.1.9 0 1.6-.3 2-.5 1.7-.9 3.9-1.5 5.5-1.5 2.5 0 4 1.3 4 3.3 0 1.6-2 4-3.9 6.3l-.7.8c-2.9 3.5-2.7 7-2.5 9.9 0 .6.1 1.2.1 1.8 0 1.7 1.4 3.6 3.5 3.6h2c.7 0 3.1-.2 3.6-3.2.4-2.4 3.1-6.7 5.4-8.6 4.7-3.8 8.6-10.6 6.6-17.4-1.1-4.2-4.9-9.3-16.4-9.3zm0 42.8c2.2 0 4 1.8 4 4s-1.8 4-4 4-4-1.8-4-4 1.8-4 4-4zm0-1.9c-3.3 0-6 2.7-6 6s2.7 6 6 6 6-2.7 6-6-2.7-6-6-6zM285.2 626.2v22h15.7v17.2h-55.4v-20.1h15.6v-19.1h24.1zm0-2.2h-24.1c-1.2 0-2.2 1-2.2 2.2v17h-13.5c-1.2 0-2.2 1-2.2 2.2v20.1c0 1.2 1 2.2 2.2 2.2h55.4c1.2 0 2.2-1 2.2-2.2v-17.2c0-1.2-1-2.2-2.2-2.2h-13.5v-19.8c.1-1.3-.9-2.3-2.1-2.3z"/><path class="st1" d="M276 657.6h-2.5v-17.1l-5.1 4v-2.9l6-4.8h1.6v20.8zM748 546.3c.6 0 1.2.5 1.6 1.6l4.2 10.2c.9 2.2 3.5 4.1 5.8 4.3l11.3 1c2.3.2 2.8 1.7 1.2 3.3l-8.5 8.3c-1.7 1.6-2.6 4.8-2.1 7.1l2.2 9.5c.4 1.6-.2 2.6-1.3 2.6-.4 0-.9-.1-1.5-.4l-9.3-4.9c-1-.5-2.4-.8-3.7-.8-1.4 0-2.7.3-3.7.8l-9.3 4.9c-.6.3-1.1.4-1.5.4-1.1 0-1.7-1-1.3-2.6l2.3-9.5c.5-2.3-.4-5.4-2.1-7.1l-8.5-8.3c-1.7-1.6-1.1-3.1 1.2-3.3l11.3-1c2.3-.2 4.9-2.1 5.8-4.3l4.2-10.2c.5-1 1.1-1.6 1.7-1.6zm0-1.9c-.8 0-2.4.4-3.4 2.8l-4.2 10.2c-.6 1.5-2.6 3-4.2 3.1l-11.3 1c-2.7.2-3.5 1.8-3.7 2.4-.2.6-.6 2.3 1.4 4.2l8.5 8.3c1.2 1.1 1.9 3.6 1.5 5.3l-2.3 9.5c-.5 1.9.1 3.1.6 3.8.6.8 1.5 1.2 2.6 1.2.8 0 1.6-.2 2.4-.7l9.3-4.9c.7-.4 1.8-.6 2.8-.6 1.1 0 2.1.2 2.8.6l9.3 4.9c.8.4 1.7.7 2.4.7 1 0 2-.4 2.6-1.2.5-.7 1-1.8.6-3.8l-2.2-9.5c-.4-1.6.3-4.1 1.5-5.2l8.5-8.3c1.9-1.9 1.6-3.6 1.4-4.2-.2-.6-1.1-2.2-3.7-2.4l-11.3-1c-1.6-.1-3.6-1.6-4.2-3.1l-4.2-10.2c-1.1-2.5-2.7-2.9-3.5-2.9zM840.3 325.9c3.9 0 7 3.2 7 7v18.7c0 3.4-2.4 6.2-5.6 6.9.3 3 2.1 5.3 5.2 7.3-1.2.5-2.5.7-3.8.7-5.4 0-11-3.8-12.6-7.9h-25.3c-3.9 0-7-3.2-7-7v-18.7c0-3.9 3.2-7 7-7h35.1zm-3.9 21.4c2.7 0 4.8-2.2 4.8-4.8 0-2.7-2.2-4.8-4.8-4.8-2.7 0-4.8 2.2-4.8 4.8 0 2.6 2.2 4.8 4.8 4.8zm-13.7 0c2.7 0 4.8-2.2 4.8-4.8 0-2.7-2.2-4.8-4.8-4.8-2.7 0-4.8 2.2-4.8 4.8 0 2.6 2.2 4.8 4.8 4.8zm-13.5 0c2.7 0 4.8-2.2 4.8-4.8 0-2.7-2.2-4.8-4.8-4.8-2.7 0-4.8 2.2-4.8 4.8 0 2.6 2.1 4.8 4.8 4.8zm31.1-23.7h-35.1c-5.1 0-9.3 4.2-9.3 9.3v18.7c0 5.1 4.2 9.3 9.3 9.3h23.9c2.6 4.4 8.6 7.9 14 7.9 1.6 0 3.2-.3 4.6-.8.8-.3 1.3-1 1.4-1.9.1-.8-.3-1.7-1-2.1-2-1.2-3.2-2.5-3.8-4 3.1-1.5 5.2-4.7 5.2-8.3V333c0-5.2-4.1-9.4-9.2-9.4zm-3.9 21.4c-1.4 0-2.6-1.2-2.6-2.6 0-1.4 1.2-2.6 2.6-2.6 1.4 0 2.6 1.2 2.6 2.6 0 1.5-1.2 2.6-2.6 2.6zm-13.7 0c-1.4 0-2.6-1.2-2.6-2.6 0-1.4 1.2-2.6 2.6-2.6 1.4 0 2.6 1.2 2.6 2.6 0 1.5-1.2 2.6-2.6 2.6zm-13.5 0c-1.4 0-2.6-1.2-2.6-2.6 0-1.4 1.2-2.6 2.6-2.6 1.4 0 2.6 1.2 2.6 2.6-.1 1.5-1.2 2.6-2.6 2.6zM895.2 587.8c.2 0 .3 0 .4.1l4.9 2c.5.2.9.8.9 1.4l-.3 4.6c0 .5.3 1.3.7 1.6l1.7 1.6c.3.4 1 .6 1.5.6h.1l4.6-.5h.1c.5 0 1.1.3 1.3.8l2.1 4.8c.2.5.1 1.2-.4 1.6l-3.5 3.1c-.4.4-.7 1.1-.7 1.6v2.3c0 .5.3 1.3.7 1.6l3.6 2.9c.4.3.6 1 .4 1.5l-2 4.9c-.2.5-.8.9-1.3.9h-.1l-4.6-.3h-.1c-.5 0-1.2.3-1.6.7l-1.6 1.7c-.4.4-.7 1.1-.6 1.7l.5 4.6c.1.5-.3 1.2-.8 1.4l-4.8 2.1c-.2.1-.3.1-.5.1-.4 0-.8-.2-1.1-.4l-3.1-3.5c-.3-.4-1-.7-1.6-.7h-2.4c-.5 0-1.2.3-1.6.7l-2.9 3.6c-.2.3-.7.5-1.1.5-.2 0-.3 0-.4-.1l-4.9-2c-.5-.2-.9-.8-.9-1.4l.3-4.6c0-.5-.3-1.3-.7-1.6L874 626c-.3-.4-1-.6-1.5-.6h-.2l-4.6.5h-.1c-.5 0-1.1-.3-1.3-.8l-2.1-4.8c-.2-.5-.1-1.2.4-1.6l3.5-3.1c.4-.4.7-1.1.7-1.6v-2.3c0-.5-.3-1.3-.7-1.6l-3.6-2.9c-.4-.3-.6-1-.4-1.5l2-4.9c.2-.5.8-.9 1.3-.9h.1l4.6.3h.1c.5 0 1.2-.3 1.6-.7l1.6-1.7c.4-.4.7-1.1.6-1.7l-.5-4.6c-.1-.5.3-1.2.8-1.4l4.8-2.1c.2-.1.3-.1.5-.1.4 0 .8.2 1.1.5l3.1 3.5c.3.4 1 .7 1.6.7h2.5c.5 0 1.2-.3 1.6-.7l2.9-3.6c-.1-.3.4-.5.8-.5zm-6.5 33.6c3.5 0 6.8-2.1 8.2-5.5 1.8-4.5-.4-9.6-4.9-11.4-1.1-.4-2.2-.6-3.3-.6-3.5 0-6.8 2.1-8.2 5.5-1.8 4.5.4 9.6 4.9 11.4 1.1.4 2.2.6 3.3.6zm6.5-35.5c-1 0-2 .5-2.6 1.2l-2.9 3.6s-.1 0-.1.1h-2.3s-.1 0-.2-.1l-3-3.4c-.6-.7-1.6-1.1-2.5-1.1-.4 0-.9.1-1.2.2l-4.9 2.1c-1.3.5-2.1 2-2 3.4l.5 4.5v.1l-1.6 1.7-.1.1h-.1l-4.6-.3h-.2c-1.3 0-2.6.9-3.1 2.1l-2 4.9c-.5 1.3-.1 2.9 1 3.8l3.6 2.9s0 .1.1.1v2.4s0 .1-.1.1l-3.5 3c-1 .9-1.4 2.5-.9 3.8l2.1 4.8c.5 1.2 1.7 2 3 2h.3l4.5-.5h.1l1.7 1.6s.1.1.1.2l-.3 4.6c-.1 1.4.8 2.8 2.1 3.3l4.9 2c.4.1.8.2 1.2.2 1 0 2-.5 2.6-1.2l2.9-3.6.1-.1h2.4s.1 0 .1.1l3 3.4c.6.7 1.5 1.1 2.5 1.1.4 0 .9-.1 1.3-.3l4.8-2.1c1.3-.5 2.1-2 2-3.3l-.5-4.5s0-.1.1-.1l1.6-1.7.1-.1h.1l4.6.3h.2c1.3 0 2.6-.8 3.1-2.1l2-4.9c.5-1.3.1-2.9-1-3.8l-3.6-2.9s0-.1-.1-.1V611s0-.1.1-.1l3.5-3c1-.9 1.4-2.5.9-3.8l-2.1-4.9c-.5-1.2-1.7-2-3-2h-.3l-4.5.5h-.1l-1.7-1.6s0-.1-.1-.1l.3-4.6c.1-1.4-.8-2.8-2.1-3.3l-4.9-2c-.5-.1-.9-.2-1.3-.2zm-6.5 33.5c-.9 0-1.7-.2-2.5-.5-3.5-1.4-5.2-5.4-3.8-8.9 1.1-2.6 3.6-4.3 6.4-4.3.9 0 1.7.2 2.5.5 1.7.7 3 2 3.8 3.7.7 1.7.7 3.6.1 5.3-1.2 2.5-3.7 4.2-6.5 4.2zM566.1 633.3c8.7.1 15.8 7.2 15.8 15.9 0 8.8-7.1 15.9-15.9 15.9-6.6 0-12.2-4-14.6-9.7h-9c-2.4 5.7-8.1 9.7-14.6 9.7-8.8 0-15.9-7.1-15.9-15.9 0-8.6 6.9-15.7 15.4-15.9h38.8zm0-2.8h-39c-10.1.4-18 8.5-18 18.6 0 10.3 8.4 18.7 18.7 18.7 6.9 0 13.1-3.7 16.4-9.7h5.5c3.2 5.9 9.5 9.7 16.4 9.7 10.3 0 18.7-8.4 18.7-18.7-.2-10.1-8.5-18.5-18.7-18.6z"/><path class="st1" d="M534.6 650.9h-4.5v4.4c0 1.2-1 2.2-2.2 2.2-1.2 0-2.2-1-2.2-2.2v-4.4h-4.2c-1.2 0-2.2-1-2.2-2.2 0-1.2 1-2.2 2.2-2.2h4.2V642c0-1.2 1-2.2 2.2-2.2 1.2 0 2.2 1 2.2 2.2v4.5h4.5c1.2 0 2.2 1 2.2 2.2.1 1.3-.9 2.2-2.2 2.2zm26.1.9c-1.6 0-2.9-1.3-2.9-2.9 0-1.6 1.3-2.9 2.9-2.9 1.6 0 2.9 1.3 2.9 2.9 0 1.6-1.3 2.9-2.9 2.9zm6.2 6.2c-1.6 0-2.9-1.3-2.9-2.9 0-1.6 1.3-2.9 2.9-2.9 1.6 0 2.9 1.3 2.9 2.9 0 1.6-1.3 2.9-2.9 2.9zm0-12.3c-1.6 0-2.9-1.3-2.9-2.9 0-1.6 1.3-2.9 2.9-2.9 1.6 0 2.9 1.3 2.9 2.9 0 1.6-1.3 2.9-2.9 2.9zm6.2 6.1c-1.6 0-2.9-1.3-2.9-2.9 0-1.6 1.3-2.9 2.9-2.9 1.6 0 2.9 1.3 2.9 2.9 0 1.6-1.3 2.9-2.9 2.9zM1067.5 419.1c.8 0 1.5.3 2.1.9l4.7 4.7c1.2 1.2 1.2 3.1 0 4.3l-9.8 9.8c-.3.3-.6.8-.7 1.2-.3 1-.1 2.2.7 3.1l9.8 9.8c1.2 1.2 1.2 3.1 0 4.3l-4.7 4.7c-.6.6-1.4.9-2.1.9-.8 0-1.5-.3-2.1-.9l-9.8-9.8c-.6-.6-1.4-.9-2.1-.9s-1.6.3-2.1.9l-9.8 9.8c-.6.6-1.4.9-2.1.9s-1.6-.3-2.1-.9l-4.7-4.7c-1.2-1.2-1.2-3.1 0-4.3l9.8-9.8c.8-.8 1.1-2 .7-3.1-.1-.4-.4-.9-.7-1.2l-9.8-9.8c-1.2-1.2-1.2-3.1 0-4.3l4.7-4.7c.6-.6 1.4-.9 2.1-.9s1.6.3 2.1.9l9.8 9.8c.6.6 1.4.9 2.1.9s1.6-.3 2.1-.9l9.8-9.8c.5-.6 1.3-.9 2.1-.9zm0-1.9c-1.3 0-2.5.5-3.5 1.4l-9.8 9.8c-.2.2-.5.3-.8.3-.3 0-.6-.1-.8-.3l-9.8-9.8c-.9-.9-2.2-1.4-3.5-1.4s-2.6.5-3.5 1.4l-4.7 4.7c-1.9 1.9-1.9 5 0 7l9.8 9.8c.1.1.2.3.3.5.1.3.1.8-.3 1.2l-9.8 9.8c-1.9 1.9-1.9 5 0 7l4.7 4.7c.9.9 2.2 1.4 3.5 1.4s2.6-.5 3.5-1.4l9.8-9.8c.2-.2.5-.3.8-.3.3 0 .6.1.8.3l9.8 9.8c.9.9 2.2 1.4 3.5 1.4 1.3 0 2.5-.5 3.5-1.4l4.7-4.7c1.9-1.9 1.9-5 0-7l-9.8-9.8c-.4-.4-.4-.8-.3-1.2.1-.2.1-.3.3-.5l9.8-9.8c1.9-1.9 1.9-5 0-6.9l-4.7-4.7c-1-1-2.2-1.5-3.5-1.5z"/><g><path class="st1" d="M946.6 500v19.7h14v15.4H911v-18h14V500h21.6zm0-2H925c-1.1 0-2 .9-2 2v15.2h-12c-1.1 0-2 .9-2 2v18c0 1.1.9 2 2 2h49.6c1.1 0 2-.9 2-2v-15.4c0-1.1-.9-2-2-2h-12.1V500c0-1.1-.8-2-1.9-2z"/><path class="st1" d="M938.3 528.1H936v-15.3l-4.5 3.6v-2.6l5.3-4.3h1.5v18.6z"/></g></g></svg>