<svg xmlns="http://www.w3.org/2000/svg" viewBox="0 0 51 51"><style>.st0{fill:#FFFFFF;}</style><path class="st0" d="M42.8 24c1.3-1.3 1.1-2.4.9-2.9-.2-.4-.7-1.5-2.5-1.6l-7.7-.7c-1.1-.1-2.4-1.1-2.9-2.1l-2.8-6.9C27.1 8.2 26.1 8 25.5 8c-.6 0-1.6.2-2.3 1.9l-2.8 6.9c-.4 1-1.8 2-2.9 2.1l-7.7.7c-1.8.2-2.4 1.2-2.5 1.6-.2.4-.4 1.6.9 2.9l5.8 5.6c.8.8 1.3 2.5 1 3.6l-1.5 6.4c-.3 1.3 0 2.1.4 2.6s1 .8 1.7.8c.5 0 1.1-.2 1.6-.5l6.3-3.3c.5-.3 1.2-.4 1.9-.4s1.4.1 1.9.4l6.3 3.3c.6.3 1.1.5 1.6.5.7 0 1.3-.3 1.7-.8.3-.4.7-1.2.4-2.6L36 33.2c-.3-1.1.2-2.8 1-3.5l5.8-5.7zm-8.1 9.5l1.5 6.4c.3 1.1-.1 1.8-.9 1.8-.3 0-.6-.1-1-.3L28 38.1c-.7-.4-1.6-.5-2.5-.5s-1.8.2-2.5.5l-6.3 3.3c-.4.2-.7.3-1 .3-.7 0-1.1-.6-.9-1.8l1.5-6.4c.4-1.5-.3-3.7-1.4-4.8l-5.8-5.6C8 22 8.4 21 9.9 20.8l7.7-.7c1.6-.1 3.3-1.4 3.9-2.9l2.8-6.9c.3-.7.7-1.1 1.1-1.1s.8.4 1.1 1.1l2.8 6.9c.6 1.5 2.4 2.8 3.9 2.9l7.7.7c1.6.1 1.9 1.2.8 2.3l-5.8 5.6c-.9 1.1-1.6 3.3-1.2 4.8z" id="Capa_1"/></svg>